<svg width="200" height="200" viewBox="0 0 200 200" xmlns="http://www.w3.org/2000/svg">
  <!-- Anime Avatar 3: Sunny yellow character -->
  <defs>
    <linearGradient id="bg3" x1="0%" y1="0%" x2="100%" y2="100%">
      <stop offset="0%" style="stop-color:#FFF8E1;stop-opacity:1" />
      <stop offset="100%" style="stop-color:#FFE0B2;stop-opacity:1" />
    </linearGradient>
  </defs>
  
  <!-- Background circle -->
  <circle cx="100" cy="100" r="100" fill="url(#bg3)"/>
  
  <!-- Face -->
  <ellipse cx="100" cy="115" rx="52" ry="56" fill="#FFDCCC"/>
  
  <!-- Hair with side ponytails -->
  <path d="M 48 95 Q 48 55 100 55 Q 152 55 152 95 Q 152 75 145 75 Q 140 60 100 65 Q 60 60 55 75 Q 48 75 48 95 Z" fill="#FFD54F"/>
  <circle cx="45" cy="110" r="18" fill="#FFD54F"/>
  <circle cx="155" cy="110" r="18" fill="#FFD54F"/>
  <circle cx="40" cy="105" r="12" fill="#FFC107"/>
  <circle cx="160" cy="105" r="12" fill="#FFC107"/>
  
  <!-- Eyes (big and sparkly) -->
  <ellipse cx="82" cy="110" rx="9" ry="13" fill="#5A4A45"/>
  <ellipse cx="118" cy="110" rx="9" ry="13" fill="#5A4A45"/>
  <circle cx="84" cy="107" r="4" fill="white"/>
  <circle cx="120" cy="107" r="4" fill="white"/>
  <circle cx="86" cy="111" r="2" fill="white"/>
  <circle cx="122" cy="111" r="2" fill="white"/>
  
  <!-- Blush -->
  <ellipse cx="68" cy="125" rx="12" ry="7" fill="#FFABAB" opacity="0.6"/>
  <ellipse cx="132" cy="125" rx="12" ry="7" fill="#FFABAB" opacity="0.6"/>
  
  <!-- Happy smile -->
  <path d="M 80 138 Q 100 148 120 138" stroke="#FF8094" stroke-width="3" fill="none" stroke-linecap="round"/>
  <ellipse cx="100" cy="143" rx="12" ry="8" fill="#FFABAB" opacity="0.4"/>
  
  <!-- Body/Clothing -->
  <path d="M 48 165 Q 48 155 70 155 L 130 155 Q 152 155 152 165 L 152 200 L 48 200 Z" fill="#B5E7A0"/>
  <path d="M 100 155 L 90 175 L 100 170 L 110 175 Z" fill="#9CCC65"/>
</svg>
