<svg width="200" height="200" viewBox="0 0 200 200" xmlns="http://www.w3.org/2000/svg">
  <!-- Anime Avatar 2: Cool blue character -->
  <defs>
    <linearGradient id="bg2" x1="0%" y1="0%" x2="100%" y2="100%">
      <stop offset="0%" style="stop-color:#D4E4FF;stop-opacity:1" />
      <stop offset="100%" style="stop-color:#B5E7E0;stop-opacity:1" />
    </linearGradient>
  </defs>
  
  <!-- Background circle -->
  <circle cx="100" cy="100" r="100" fill="url(#bg2)"/>
  
  <!-- Face -->
  <ellipse cx="100" cy="110" rx="48" ry="53" fill="#FFE4D9"/>
  
  <!-- Hair -->
  <path d="M 52 85 Q 52 45 100 45 Q 148 45 148 85 L 145 100 Q 140 65 120 60 L 115 80 Q 110 55 100 58 Q 90 55 85 80 L 80 60 Q 60 65 55 100 Z" fill="#8DB5E2"/>
  
  <!-- Eyes (closed/happy) -->
  <path d="M 78 100 Q 85 105 92 100" stroke="#3D2E29" stroke-width="3" fill="none" stroke-linecap="round"/>
  <path d="M 108 100 Q 115 105 122 100" stroke="#3D2E29" stroke-width="3" fill="none" stroke-linecap="round"/>
  
  <!-- Blush -->
  <ellipse cx="72" cy="118" rx="10" ry="6" fill="#FFA6B8" opacity="0.6"/>
  <ellipse cx="128" cy="118" rx="10" ry="6" fill="#FFA6B8" opacity="0.6"/>
  
  <!-- Smile -->
  <path d="M 82 130 Q 100 138 118 130" stroke="#FF8094" stroke-width="3" fill="none" stroke-linecap="round"/>
  
  <!-- Body/Clothing -->
  <path d="M 52 160 Q 52 152 72 152 L 128 152 Q 148 152 148 160 L 148 200 L 52 200 Z" fill="#B5E7E0"/>
  <rect x="95" y="158" width="10" height="30" fill="#8DB5E2"/>
</svg>
